<svg width="46" height="42" viewBox="0 0 46 42" fill="none" xmlns="http://www.w3.org/2000/svg">
<path d="M9.86973 19.9976C15.5994 19.9976 23.5262 23.224 29.2777 23.224C33.3795 23.224 37.3865 22.128 39.6604 20.5155C40.0783 18.0188 39.9474 15.461 39.2769 13.02C38.6063 10.579 37.4122 8.31334 35.7775 6.38049C34.1428 4.44763 32.1068 2.89398 29.8109 1.82753C27.5151 0.761089 25.0146 0.207444 22.4831 0.205086C19.9517 0.202727 17.4501 0.751712 15.1523 1.81387C12.8545 2.87604 10.8156 4.42589 9.17727 6.3557C7.53898 8.28551 6.34063 10.549 5.66554 12.9887C4.99044 15.4285 4.85478 17.986 5.26801 20.4835C5.90123 20.3668 8.03801 19.9976 9.86973 19.9976Z" fill="white"/>
<path d="M33.75 13.5692L34.4396 13.855L35.9688 12.7886L33.75 13.5692Z" fill="#E3A82B"/>
<path d="M8.05663 12.3784L6.24542 11.7375L6.33515 11.5158L8.38349 12.199H8.39247L8.66165 12.0464L8.76932 11.9798L6.54281 11.0325L6.63766 10.7992L11.6047 12.8091L11.7688 12.7412L6.83506 10.3352L6.9453 10.1096L12.1661 12.5387L12.2379 12.5028L7.17602 9.6315L7.27985 9.41616L14.5862 13.3898C14.6464 13.2783 14.7721 13.077 14.8426 12.9681C13.1068 11.3446 11.2835 9.81741 9.38075 8.39327C11.3686 9.69293 13.426 10.8829 15.5437 11.958C15.6552 11.8183 15.7475 11.7016 15.868 11.5735L9.63198 6.08343L9.79862 5.91039L14.8323 10.2006L10.1691 5.53097L10.3434 5.35024L15.5796 10.4096L10.7087 5.0003L10.8946 4.83238L15.3989 9.65586L11.2881 4.47604L11.4599 4.31837L16.7294 10.7275C16.8666 10.6108 16.9794 10.5224 17.1216 10.4134C16.1252 8.26891 15.0126 6.18029 13.7889 4.15686C15.1393 6.09572 16.5942 7.95967 18.1471 9.74046C18.2996 9.65458 18.4547 9.57254 18.6124 9.49563L18.5868 9.47768L14.8938 2.10724L15.113 2.0111L18.1727 7.87413L15.5911 1.7996L15.8206 1.69706L18.779 8.34969L16.2872 1.50863L16.523 1.42275L18.8944 7.58188L17.0204 1.24201L17.2447 1.1587L19.7083 9.02649V9.04699H19.7148C19.8775 8.99188 20.0442 8.94317 20.2121 8.8983C20.0892 6.54801 19.8388 4.20611 19.4622 1.88292C19.9838 4.17514 20.629 6.43744 21.3952 8.65989C21.5683 8.63809 21.7413 8.62015 21.9169 8.60861V8.59964H21.9387L21.9259 8.58169L21.2632 0.365253L21.5029 0.357561L22.1438 6.93969L22.0284 0.344743L22.2848 0.337052L22.5412 7.61264L22.7975 0.337052L23.0539 0.344743L22.9436 6.94353L23.5846 0.361406L23.8243 0.369098L23.1616 8.58554L23.1487 8.60349H23.1603C23.332 8.61502 23.5012 8.63169 23.673 8.65219C24.4305 6.43184 25.0672 4.17211 25.5803 1.88292C25.2057 4.19939 24.9567 6.53443 24.8343 8.8778C25.0035 8.92266 25.1714 8.97137 25.3368 9.0252L27.7915 1.18561L28.0158 1.26893L26.1443 7.61136L28.5144 1.45223L28.7503 1.53811L26.2571 8.37917L29.2156 1.72654L29.4463 1.82909L26.8711 7.90746L29.9308 2.04059L30.1513 2.138L26.4712 9.48153C26.6225 9.55588 26.7711 9.63407 26.9173 9.7161C28.4606 7.94279 29.9065 6.08698 31.2485 4.15686C30.0315 6.16868 28.9241 8.24483 27.9312 10.3762C28.0722 10.4839 28.2119 10.5954 28.3465 10.7095L33.5545 4.36708L33.7314 4.52731L29.6206 9.70713L34.1249 4.88494L34.3108 5.05286L29.4399 10.4621L34.6748 5.40151L34.8504 5.58224L30.1872 10.2519L35.2209 5.96294L35.3875 6.13471L29.2271 11.5632C29.3348 11.6824 29.4386 11.8067 29.5399 11.9324C31.6409 10.8633 33.6825 9.681 35.6554 8.39071C33.7677 9.804 31.9581 11.3188 30.2346 12.9283C30.3115 13.0565 30.4333 13.2706 30.5025 13.4013L37.7102 9.4764L37.814 9.69303L32.0612 12.9553L38.0447 10.1711L38.1537 10.3967L32.5816 13.1129L32.688 13.1501L38.3588 10.8556L38.4536 11.0889L33.1815 13.3308L33.2802 13.3718L36.7924 12.2003L37.3218 11.8311L37.4987 11.9657L38.6523 11.5811L38.7433 11.8029L37.7435 12.1554L39.1881 13.2578L39.6508 13.5141C38.711 9.62626 36.4796 6.17245 33.3215 3.71774C30.1635 1.26304 26.2659 -0.0472321 22.2663 0.00130136C18.2668 0.0498349 14.4021 1.4543 11.3046 3.98491C8.20704 6.51553 6.06005 10.0225 5.21484 13.932L5.27893 13.9L5.49043 13.8051L5.61862 13.7436L8.05663 12.3784Z" fill="#E3A82B"/>
<path d="M5.11525 20.8538C5.11525 20.8538 7.7199 20.3411 9.89515 20.3411C15.6249 20.3411 23.5516 23.5674 29.3018 23.5674C33.5216 23.5674 37.6337 22.4138 39.8794 20.7231C40.2984 18.3324 40.2239 15.8813 39.6602 13.5205L37.2632 12.1836L34.4496 14.1563L32.5577 13.4193C31.9168 13.7436 27.9636 16.3867 27.9636 16.3867L26.4472 15.2882L24.8193 14.9664L22.6492 13.3859L20.1599 15.0959C20.1599 15.0959 17.3822 16.7084 17.2861 16.7084C17.19 16.7084 13.9354 14.1268 13.9354 14.1268L12.4357 12.5476C12.1793 12.7079 11.1539 13.177 11.1539 13.177L11.1013 13.1911L10.1143 12.8847L8.91456 12.2438L5.27933 13.8999L5.21523 13.932C4.7287 16.2104 4.69473 18.5623 5.11525 20.8538Z" fill="#65799E"/>
<path d="M40.1067 41.2976H5.36621V41.7194H40.1067V41.2976Z" fill="#E3A82B"/>
<path d="M6.25757 26.2448C6.25757 25.5393 6.20789 25.3527 5.73093 25.314L5.39971 25.292C5.34561 25.2489 5.35996 25.0579 5.40965 25.0535C5.98045 25.0027 6.7003 24.9773 7.68402 24.9773C8.34646 24.9773 8.98571 25.0248 9.46156 25.2445C9.91643 25.4443 10.2653 25.8252 10.2653 26.4347C10.2653 27.1214 9.82369 27.4736 9.18665 27.7408C9.18665 27.8357 9.27056 27.8644 9.38759 27.8832C9.95839 27.9792 10.8041 28.4551 10.8041 29.4752C10.8041 30.5793 9.89546 31.3246 7.99095 31.3246C7.68402 31.3246 7.16621 31.2958 6.72127 31.2958C6.25646 31.2958 5.89654 31.3146 5.50681 31.3246C5.47331 31.2951 5.45244 31.2539 5.44853 31.2095C5.44463 31.1651 5.45798 31.1209 5.48583 31.0861L5.67683 31.0574C6.23659 30.9713 6.25867 30.8664 6.25867 29.8661L6.25757 26.2448ZM7.12426 27.5122C7.12426 27.7794 7.1353 27.7982 7.67629 27.7794C8.75606 27.7408 9.3379 27.4548 9.3379 26.5649C9.3379 25.6309 8.56506 25.2776 7.7613 25.2776C7.59692 25.269 7.43228 25.2884 7.27441 25.335C7.164 25.3637 7.12646 25.4112 7.12646 25.5834L7.12426 27.5122ZM7.12426 29.7204C7.12426 30.0637 7.14523 30.5495 7.34507 30.7593C7.54491 30.969 7.86177 31.032 8.18195 31.032C9.12371 31.032 9.84357 30.6511 9.84357 29.6983C9.84357 28.9453 9.4196 28.0687 7.73812 28.0687C7.16732 28.0687 7.12426 28.125 7.12426 28.316V29.7204Z" fill="white"/>
<path d="M18.1582 27.1831C18.1582 26.3197 18.1394 26.1817 17.6062 26.1409L17.3853 26.1243C17.3312 26.0923 17.3489 25.9454 17.403 25.9211C17.8546 25.9366 18.1626 25.9454 18.5413 25.9454C18.9034 25.9454 19.2104 25.9366 19.6619 25.9211C19.716 25.9454 19.7348 26.0923 19.6807 26.1243L19.4599 26.1409C18.9266 26.1817 18.9078 26.3197 18.9078 27.1831V30.0801C18.9078 30.9435 18.9255 31.0572 19.4599 31.1147L19.6807 31.1389C19.7348 31.171 19.716 31.3178 19.6619 31.3421C19.2104 31.3255 18.9034 31.3178 18.5413 31.3178C18.1626 31.3178 17.8546 31.3255 17.403 31.3421C17.3743 31.3171 17.3565 31.282 17.3532 31.2441C17.3499 31.2062 17.3614 31.1685 17.3853 31.1389L17.6062 31.1147C18.1383 31.0572 18.1582 30.9435 18.1582 30.0801V27.1831Z" fill="white"/>
<path d="M23.1709 30.0967C23.1709 30.9513 23.1875 31.0738 23.6788 31.1147L23.9493 31.139C24.0001 31.171 23.9835 31.3178 23.9327 31.3421C23.4502 31.3256 23.1599 31.3178 22.8286 31.3178C22.4974 31.3178 22.1938 31.3256 21.6517 31.3421C21.6375 31.3293 21.6262 31.3136 21.6184 31.2961C21.6106 31.2786 21.6066 31.2597 21.6066 31.2405C21.6066 31.2214 21.6106 31.2025 21.6184 31.185C21.6262 31.1675 21.6375 31.1518 21.6517 31.139L21.9564 31.1147C22.4389 31.0738 22.4809 30.9513 22.4809 30.0967V26.4533C22.4809 26.2016 22.4809 26.1939 22.2269 26.1939H21.7621C21.3978 26.1939 20.9319 26.2093 20.7199 26.397C20.5515 26.5522 20.4211 26.7441 20.339 26.9579C20.302 26.9785 20.2584 26.9842 20.2173 26.9737C20.1763 26.9633 20.1408 26.9374 20.1182 26.9016C20.2563 26.5056 20.3637 26.0996 20.4394 25.6871C20.4913 25.6668 20.5488 25.6668 20.6006 25.6871C20.6514 25.9477 20.9319 25.9399 21.3205 25.9399H24.7431C25.2002 25.9399 25.2763 25.9234 25.4055 25.7125C25.4486 25.6959 25.5413 25.7037 25.5579 25.7368C25.4616 26.1416 25.4189 26.5574 25.4309 26.9733C25.3978 27.0385 25.2532 27.0385 25.2101 26.9899C25.1847 26.7868 25.1251 26.4853 24.9981 26.3959C24.8038 26.2568 24.4825 26.1928 24.0166 26.1928H23.4149C23.161 26.1928 23.1698 26.2005 23.1698 26.4688L23.1709 30.0967Z" fill="white"/>
<path d="M26.7998 27.1831C26.7998 26.3197 26.781 26.1817 26.2478 26.1409L26.0269 26.1243C25.9728 26.0923 25.9905 25.9454 26.0446 25.9211C26.4962 25.9366 26.8042 25.9454 27.1829 25.9454C27.545 25.9454 27.852 25.9366 28.3035 25.9211C28.3576 25.9454 28.3764 26.0923 28.3223 26.1243L28.1015 26.1409C27.5682 26.1817 27.5494 26.3197 27.5494 27.1831V30.0801C27.5494 30.9435 27.5671 31.0572 28.1015 31.1147L28.3223 31.1389C28.3764 31.171 28.3576 31.3178 28.3035 31.3421C27.852 31.3255 27.545 31.3178 27.1829 31.3178C26.8042 31.3178 26.4962 31.3255 26.0446 31.3421C26.0159 31.3171 25.9981 31.282 25.9948 31.2441C25.9915 31.2062 26.003 31.1685 26.0269 31.1389L26.2478 31.1147C26.781 31.0572 26.7998 30.9435 26.7998 30.0801V27.1831Z" fill="white"/>
<path d="M30.8485 31.4261C30.3327 31.4399 29.8206 31.3368 29.3503 31.1247C29.2399 30.9459 29.1096 30.3673 29.0908 29.9853C29.1383 29.9279 29.2829 29.9114 29.3216 29.961C29.4651 30.3762 29.8592 31.1755 30.9777 31.1755C31.7847 31.1755 32.1789 30.7284 32.1789 30.2393C32.1789 29.8815 32.0917 29.483 31.3906 29.0999L30.4786 28.5953C29.9984 28.327 29.4408 27.8622 29.4408 27.1954C29.4408 26.4225 30.1518 25.7954 31.4005 25.7954C31.7012 25.8015 32.0005 25.8385 32.2937 25.9058C32.4019 25.9349 32.513 25.9515 32.6249 25.9555C32.7376 26.2748 32.7962 26.6106 32.7983 26.9492C32.765 26.976 32.7246 26.9925 32.6821 26.9968C32.6395 27.0011 32.5967 26.993 32.5587 26.9734C32.4328 26.5826 32.1745 26.0538 31.2515 26.0538C30.3108 26.0538 30.1088 26.5826 30.1088 26.958C30.1088 27.4294 30.5703 27.7717 30.9247 27.9583L31.6975 28.3657C32.3036 28.6836 32.8987 29.1551 32.8987 29.929C32.8943 30.8112 32.0972 31.4261 30.8485 31.4261Z" fill="white"/>
<path d="M35.6837 28.6891C35.2631 28.6891 35.2421 28.7046 35.2421 28.9486V30.0968C35.2421 30.9514 35.2863 31.0662 35.7765 31.1148L36.0304 31.1391C36.0834 31.1711 36.0658 31.3179 36.0128 31.3422C35.5402 31.3256 35.2399 31.3179 34.901 31.3179C34.5245 31.3179 34.2264 31.3345 33.8841 31.3422C33.8563 31.3166 33.8392 31.2815 33.8361 31.2439C33.833 31.2062 33.8443 31.1688 33.8676 31.1391L34.0155 31.1148C34.5068 31.0331 34.5245 30.9514 34.5245 30.0968V27.1677C34.5245 26.3132 34.4627 26.1741 34.0078 26.1421L33.7792 26.1255C33.7273 26.0935 33.745 25.9467 33.7969 25.9224C34.2264 25.9301 34.5245 25.9467 34.901 25.9467C35.2421 25.9467 35.5402 25.9378 35.9167 25.9224C35.9697 25.9467 35.9874 26.0935 35.9344 26.1255L35.7677 26.1421C35.2598 26.1907 35.2421 26.3132 35.2421 27.1677V28.104C35.2421 28.3557 35.2598 28.3646 35.6837 28.3646H38.1889C38.6095 28.3646 38.6305 28.3557 38.6305 28.104V27.1677C38.6305 26.3132 38.6128 26.1907 38.0961 26.1421L37.9294 26.1255C37.8764 26.0935 37.8941 25.9467 37.9471 25.9224C38.3501 25.9378 38.6482 25.9467 39.007 25.9467C39.3481 25.9467 39.6462 25.9378 40.0404 25.9224C40.0934 25.9467 40.1099 26.0935 40.058 26.1255L39.8737 26.1421C39.3658 26.1907 39.3481 26.3132 39.3481 27.1677V30.0979C39.3481 30.9525 39.3658 31.0585 39.8737 31.1159L40.0845 31.1402C40.1364 31.1722 40.1188 31.319 40.0669 31.3433C39.6462 31.3268 39.3481 31.319 39.007 31.319C38.6482 31.319 38.3324 31.3268 37.9471 31.3433C37.9189 31.318 37.9014 31.283 37.8981 31.2452C37.8948 31.2075 37.906 31.1699 37.9294 31.1402L38.0961 31.1159C38.6305 31.0342 38.6305 30.9525 38.6305 30.0979V28.9497C38.6305 28.7057 38.6128 28.6902 38.1889 28.6902L35.6837 28.6891Z" fill="white"/>
<path d="M1.24392 33.1296C1.96377 32.5698 2.88124 32.2949 3.90692 32.2949C4.49631 32.3058 5.08244 32.3851 5.65355 32.5312C5.7422 32.5618 5.83587 32.5753 5.92956 32.5709C5.9395 32.7973 5.98918 33.4155 6.06757 34.0151C6.03274 34.0493 5.98689 34.0701 5.93817 34.0737C5.88945 34.0774 5.84102 34.0636 5.80149 34.0349C5.65355 33.3725 5.20971 32.5996 3.77995 32.5996C2.2707 32.5996 0.98888 33.5536 0.98888 35.5883C0.98888 37.6518 2.30051 38.7901 3.91796 38.7901C5.18984 38.7901 5.75181 37.9643 5.97925 37.3847C6.02 37.3611 6.06754 37.3521 6.11409 37.3591C6.16063 37.3661 6.2034 37.3888 6.23539 37.4233C6.16694 37.9345 5.90969 38.5837 5.76175 38.7703C5.64417 38.7924 5.52886 38.8253 5.41728 38.8685C4.91022 39.014 4.38582 39.0901 3.85834 39.0948C2.97509 39.0948 2.12275 38.9171 1.4029 38.4324C0.961547 38.1367 0.601755 37.7346 0.356705 37.2632C0.111656 36.7918 -0.0107617 36.2663 0.000742017 35.7352C-0.00600813 35.2346 0.102622 34.7391 0.318211 34.2873C0.533799 33.8354 0.850555 33.4393 1.24392 33.1296Z" fill="white"/>
<path d="M6.63867 36.3105C6.63867 34.682 7.92049 33.4399 9.68147 33.4399C11.6555 33.4399 12.647 34.799 12.647 36.2321C12.647 37.8761 11.3309 39.0729 9.68147 39.0729C7.78359 39.0696 6.63867 37.7756 6.63867 36.3105ZM11.7924 36.4805C11.7924 35.138 11.1686 33.6884 9.53573 33.6884C8.64696 33.6884 7.49322 34.2669 7.49322 36.0499C7.49322 37.2545 8.10818 38.8178 9.79188 38.8178C10.8176 38.8178 11.7924 38.0847 11.7924 36.4805Z" fill="white"/>
<path d="M22.2897 35.6104C22.2897 35.1047 22.272 34.1685 22.1252 33.9245C22.0645 33.8273 21.9044 33.7699 21.6946 33.7534L21.4738 33.7379C21.4508 33.7094 21.4399 33.6731 21.4432 33.6366C21.4465 33.6002 21.4638 33.5664 21.4914 33.5425C21.8227 33.5579 22.1384 33.5668 22.4752 33.5668C22.8373 33.5668 23.0703 33.5579 23.3805 33.5425C23.395 33.5538 23.407 33.568 23.4157 33.5841C23.4245 33.6003 23.4299 33.6181 23.4316 33.6364C23.4332 33.6547 23.4311 33.6731 23.4254 33.6906C23.4196 33.7081 23.4104 33.7241 23.3982 33.7379L23.1906 33.7534C22.9698 33.7699 22.8108 33.8439 22.76 33.9488C22.6386 34.2182 22.6386 35.1544 22.6386 35.6104V36.5301C22.6386 37.2378 22.5182 37.9874 22.0346 38.4754C21.6637 38.8574 21.0255 39.0694 20.3863 39.0694C19.7912 39.0694 19.1961 38.959 18.7732 38.6223C18.3162 38.2635 18.0998 37.6695 18.0998 36.7012V34.779C18.0998 33.9333 18.0832 33.7942 17.5831 33.7534L17.3622 33.7379C17.3104 33.7048 17.328 33.5668 17.3799 33.5425C17.8116 33.5579 18.1042 33.5668 18.4498 33.5668C18.7953 33.5668 19.0879 33.5579 19.5108 33.5425C19.5626 33.5668 19.5803 33.7048 19.5284 33.7379L19.3209 33.7534C18.8207 33.7942 18.803 33.9333 18.803 34.779V36.5378C18.803 37.8483 19.2347 38.7117 20.5552 38.7117C21.8061 38.7117 22.2808 37.7832 22.2808 36.5466L22.2897 35.6104Z" fill="white"/>
<path d="M32.3186 34.5936C32.3186 33.9842 32.28 33.8285 31.8505 33.7954L31.5458 33.7656C31.5104 33.7347 31.4928 33.5702 31.5546 33.5658C32.0702 33.5271 32.7183 33.4995 33.6059 33.4995C34.2066 33.4995 34.7785 33.5404 35.2079 33.7292C35.6176 33.9025 35.9322 34.2315 35.9322 34.7581C35.9322 35.3499 35.5314 35.6535 34.9595 35.8843C34.9595 35.966 35.0357 35.9947 35.1406 36.0068C35.6562 36.0896 36.4191 36.5004 36.4191 37.3803C36.4191 38.3342 35.5988 38.9757 33.8798 38.9757C33.6037 38.9757 33.1356 38.9503 32.7359 38.9503C32.3164 38.9503 31.9918 38.9668 31.6385 38.9757C31.6235 38.9636 31.6111 38.9486 31.602 38.9317C31.593 38.9147 31.5874 38.8961 31.5856 38.877C31.5839 38.8578 31.586 38.8385 31.5919 38.8202C31.5977 38.8019 31.6072 38.7849 31.6197 38.7703L31.7909 38.7449C32.2965 38.6709 32.3164 38.5804 32.3164 37.717L32.3186 34.5936ZM33.1003 35.6867C33.1003 35.9174 33.1102 35.9329 33.596 35.9174C34.5687 35.8843 35.0931 35.637 35.0931 34.8641C35.0931 34.0582 34.3976 33.7546 33.6722 33.7546C33.5232 33.7464 33.374 33.7632 33.2306 33.8042C33.1345 33.8285 33.097 33.8694 33.097 34.0173L33.1003 35.6867ZM33.1003 37.5945C33.1003 37.8904 33.1191 38.3088 33.3001 38.4899C33.4812 38.6709 33.7682 38.7206 34.0542 38.7206C34.9032 38.7206 35.5513 38.3894 35.5513 37.5691C35.5513 36.9199 35.1693 36.1636 33.6534 36.1636C33.1378 36.1636 33.1014 36.2122 33.1014 36.3778L33.1003 37.5945Z" fill="white"/>
<path d="M16.7773 31.1424L16.5565 31.1225C16.5112 31.1225 16.4704 31.1126 16.4317 31.106C16.1005 31.0475 15.9691 30.7527 15.8135 30.48L15.0318 29.1187C14.8971 28.8978 14.7525 28.5876 14.4433 28.5434C15.2438 28.4474 15.968 27.9848 15.968 27.1921C15.968 26.2757 15.0605 25.8672 14.1441 25.8672C13.5921 25.8672 13.0931 25.8815 12.5333 25.8815C12.2253 25.8815 11.8576 25.8672 11.5496 25.8672C11.3773 25.8672 11.3762 25.9014 11.3762 25.9975C11.3762 26.1388 11.4359 26.1001 11.6169 26.1079C12.2694 26.1443 12.244 26.2658 12.244 26.8244V30.3916C12.244 30.9017 12.2882 31.0541 11.7516 31.1027L11.6236 31.1159L11.395 31.1424C11.3709 31.172 11.3594 31.2098 11.3629 31.2478C11.3664 31.2858 11.3847 31.3209 11.4138 31.3455L11.745 31.3334C12.042 31.3246 12.3379 31.3014 12.6349 31.3014C12.9319 31.3014 13.2189 31.3246 13.5126 31.3334L13.8438 31.3444C13.8728 31.3196 13.8908 31.2845 13.8941 31.2465C13.8974 31.2085 13.8857 31.1707 13.8615 31.1413L13.6329 31.1203L13.506 31.1082C12.965 31.0706 12.9981 30.9183 12.9981 30.395V29.0447C12.9981 28.9663 12.9882 28.7576 13.0467 28.6958C13.1052 28.634 13.1814 28.6527 13.2587 28.6527C13.9918 28.6527 13.9818 28.7223 14.3296 29.3328L15.2747 31.0331C15.352 31.1645 15.4094 31.3301 15.6059 31.3301H16.4273L16.7586 31.3411C16.7862 31.3165 16.8034 31.2823 16.8069 31.2454C16.8104 31.2086 16.7998 31.1718 16.7773 31.1424ZM13.4839 28.4673C13.3194 28.4673 12.9915 28.528 12.9915 28.3105V26.746C12.9915 26.1355 13.0114 26.0483 13.7445 26.0483C14.6023 26.0483 15.1334 26.4899 15.1334 27.287C15.1403 27.4596 15.1035 27.631 15.0263 27.7855C14.949 27.9399 14.834 28.0723 14.6917 28.1703C14.323 28.4297 13.9277 28.4639 13.4839 28.4639V28.4673Z" fill="white"/>
<path d="M13.6598 34.8078C13.6598 33.9521 13.6422 33.8218 13.078 33.781L12.8572 33.7655C12.8042 33.7324 12.8219 33.5867 12.876 33.5613C13.3772 33.5778 13.6819 33.5856 14.0396 33.5856C14.3973 33.5856 14.6932 33.5778 15.1437 33.5624C15.1967 33.5867 15.2144 33.7324 15.1614 33.7655L14.9461 33.781C14.4183 33.8218 14.3996 33.9521 14.3996 34.8078V37.6397C14.3996 38.1531 14.4272 38.3651 14.5884 38.5229C14.6866 38.6124 14.8566 38.7095 15.5643 38.7095C16.325 38.7095 16.5127 38.6775 16.6563 38.5991C16.8351 38.502 17.0681 38.2094 17.2469 37.7932C17.301 37.7534 17.4678 37.7854 17.4678 37.8428C17.3802 38.234 17.2545 38.6156 17.0924 38.9822C16.6353 38.9657 15.7841 38.9579 14.8622 38.9579H14.0385C13.662 38.9579 13.3761 38.9657 12.8748 38.9822C12.8462 38.9572 12.8283 38.9222 12.8248 38.8844C12.8214 38.8466 12.8325 38.8089 12.8561 38.7791L13.1255 38.7537C13.6444 38.7051 13.662 38.5914 13.662 37.7368L13.6598 34.8078Z" fill="white"/>
<path d="M37.6478 34.8232C37.6478 33.9609 37.6301 33.8218 37.1112 33.781L36.8904 33.7655C36.8374 33.7324 36.8551 33.5867 36.9081 33.5613C37.3497 33.5778 37.6467 33.5856 38.0121 33.5856C38.3776 33.5856 38.6635 33.5778 39.1029 33.5624C39.1548 33.5867 39.1725 33.7324 39.1206 33.7655L38.8998 33.781C38.382 33.8218 38.3643 33.9609 38.3643 34.8232V37.7214C38.3643 38.5848 38.382 38.6985 38.8998 38.7548L39.1206 38.7802C39.1725 38.8122 39.1548 38.959 39.1029 38.9833C38.6613 38.9668 38.3643 38.959 38.0121 38.959C37.6599 38.959 37.3497 38.9668 36.9081 38.9833C36.8799 38.9581 36.8623 38.923 36.8591 38.8853C36.8558 38.8475 36.867 38.81 36.8904 38.7802L37.1112 38.7548C37.6301 38.6985 37.6478 38.5848 37.6478 37.7214V34.8232Z" fill="white"/>
<path d="M30.6226 38.7539C30.5773 38.7483 30.4934 38.7417 30.4934 38.7417C30.4036 38.7437 30.3166 38.71 30.2516 38.6479C30.1412 38.5264 30.1467 38.1809 30.1467 38.0428V34.4756C30.1467 34.3199 30.1092 33.9832 30.2229 33.8629C30.3041 33.8032 30.404 33.7746 30.5045 33.7823L30.627 33.7734L30.8478 33.758C30.9019 33.7249 30.8843 33.5791 30.8302 33.5537C30.7087 33.5537 30.5994 33.5537 30.4989 33.5603H29.5395C29.4291 33.5603 29.3397 33.5603 29.2823 33.6708L27.3248 37.747L25.5969 33.8088C25.5395 33.6708 25.5307 33.5581 25.3496 33.5581H24.3493C24.2455 33.5581 24.1285 33.5581 24.0104 33.5515C23.9563 33.5769 23.9375 33.7226 23.9916 33.7558L24.2124 33.7712L24.3427 33.7812C24.7181 33.8054 24.7412 33.8916 24.707 34.2835L24.4222 38.1124C24.3968 38.4966 24.3758 38.6987 23.9739 38.7362C23.9739 38.7362 23.8889 38.7472 23.8414 38.7517L23.6206 38.777C23.5967 38.8066 23.5851 38.8443 23.5884 38.8822C23.5917 38.9201 23.6096 38.9552 23.6383 38.9802L23.9695 38.9692C24.1738 38.9592 24.3813 38.9416 24.5889 38.9416C24.8097 38.9416 25.0371 38.9625 25.2624 38.9714L25.5936 38.9824C25.6223 38.9574 25.6401 38.9223 25.6434 38.8844C25.6467 38.8465 25.6352 38.8088 25.6112 38.7793L25.3904 38.755L25.2635 38.7439C24.6827 38.7042 24.696 38.2946 24.7324 37.7922L24.9974 34.2338H25.0647L26.9361 38.6125C26.9549 38.6733 26.9836 38.777 27.0785 38.777C27.1735 38.777 27.189 38.6821 27.221 38.6214L29.3297 34.13H29.396V38.0428C29.396 38.1985 29.4159 38.5176 29.2536 38.639C29.14 38.6913 29.0189 38.7252 28.8947 38.7395C28.8572 38.745 28.8175 38.7505 28.7722 38.755L28.5514 38.7804C28.5274 38.8099 28.5159 38.8476 28.5192 38.8855C28.5225 38.9234 28.5404 38.9585 28.569 38.9835L28.9003 38.9725C29.2072 38.9636 29.5185 38.9416 29.8299 38.9416C30.0507 38.9416 30.4923 38.9625 30.4923 38.9625C30.6027 38.9625 30.7131 38.9769 30.8368 38.9813C30.8656 38.9565 30.8837 38.9214 30.8872 38.8835C30.8907 38.8456 30.8794 38.8078 30.8556 38.7781L30.6226 38.7539Z" fill="white"/>
<path d="M45.3037 38.7759L45.2739 38.7516L45.1502 38.7351C44.798 38.6567 44.6611 38.2327 44.5309 37.9302L42.7202 33.6431C42.7014 33.5912 42.6661 33.4797 42.5943 33.4797C42.495 33.4797 42.4685 33.6001 42.442 33.6674L40.7108 37.9468C40.6479 38.1091 40.49 38.4988 40.3697 38.6225C40.2779 38.7022 40.16 38.7454 40.0384 38.7439L39.8938 38.7583L39.6807 38.7803C39.6569 38.81 39.6456 38.8478 39.6491 38.8857C39.6526 38.9236 39.6706 38.9587 39.6995 38.9835L40.0307 38.9713C40.267 38.9713 40.5043 38.9382 40.7417 38.9382C40.9405 38.9382 41.1403 38.9592 41.339 38.968L41.6702 38.9802C41.6991 38.9554 41.7172 38.9203 41.7207 38.8824C41.7242 38.8445 41.7128 38.8067 41.689 38.777L41.4627 38.7527L41.3401 38.7406C41.1315 38.7174 40.872 38.6799 40.872 38.4513C40.8863 38.2884 40.9289 38.1293 40.9979 37.981L41.2673 37.3406C41.402 37.0337 41.3479 36.9995 41.7089 36.9995H42.9234C43.3528 36.9995 43.2899 36.9995 43.4754 37.4356L43.7624 38.0837C43.8261 38.2161 43.8686 38.3576 43.8883 38.5032C43.8883 38.7174 43.6531 38.7318 43.4345 38.7494L43.2987 38.7605L43.0779 38.777C43.0541 38.8067 43.0428 38.8445 43.0463 38.8824C43.0498 38.9203 43.0678 38.9554 43.0967 38.9802L43.4279 38.9669C43.6829 38.9581 43.9402 38.9382 44.1864 38.9382C44.5 38.9382 44.8146 38.9592 45.1282 38.968C45.2319 38.968 45.1447 38.9747 45.264 38.9791C45.2961 38.9573 45.3183 38.9238 45.3257 38.8857C45.3332 38.8476 45.3253 38.8082 45.3037 38.7759ZM42.9311 36.761H41.8734C41.837 36.761 41.5422 36.7952 41.5422 36.7091C41.5467 36.6734 41.556 36.6385 41.5698 36.6053L42.2035 35.0343C42.2223 34.9912 42.2863 34.7759 42.3603 34.7759C42.4155 34.7759 42.4883 34.9967 42.5071 35.0343L43.132 36.5016C43.132 36.5192 43.1961 36.6572 43.1961 36.6915C43.1972 36.7864 42.9863 36.761 42.9311 36.761Z" fill="white"/>
</svg>
